<?xml version="1.0" encoding="utf-8"?>
<!-- Generator: Adobe Illustrator 27.7.0, SVG Export Plug-In . SVG Version: 6.00 Build 0)  -->
<svg version="1.1" id="Layer_1" xmlns="http://www.w3.org/2000/svg" xmlns:xlink="http://www.w3.org/1999/xlink" x="0px" y="0px"
	 viewBox="0 0 228.7 39.1" style="enable-background:new 0 0 228.7 39.1;" xml:space="preserve">
<style type="text/css">
	.st0{fill:#FED136;stroke:#FFCC33;stroke-miterlimit:10;}
</style>
<g>
	<path class="st0" d="M23.8,10.9c0.2,0.1,0.3,0.2,0.3,0.4c0,0.2-0.2,0.2-0.5,0.2c-0.5,0-0.7,0-0.6,0c-0.3,0-0.5,0.2-0.8,0.4
		c-0.6,0.6-1.3,1.9-2.1,3.8c-1,2.5-1.9,5.7-2.8,9.5l0.9-1.5c0.2-0.3,0.3-0.4,0.5-0.4c0.1,0,0.2,0.1,0.2,0.2c0,0.1,0,0.2-0.1,0.4
		c-0.5,1.1-0.7,1.7-0.7,1.7c-0.3,0.8-0.5,1.4-0.6,1.9c-0.1,0.5-0.2,0.8-0.4,0.8c-0.1,0-0.5-0.2-1.2-0.5c-0.2-0.1-0.3-0.4-0.3-1
		c0-1,0.3-2.8,0.9-5.4c-3.2-0.2-5.5-0.2-7.1,0.1c-0.4,0.9-0.9,2.2-1.6,3.7c-0.7,1.5-1.2,2.5-1.5,2.9c-0.3,0.4-0.6,0.6-1,0.4
		c-0.8-0.3-1.3-0.5-1.3-0.8c0-0.1,0.1-0.3,0.2-0.6c0.2-0.4,0.5-0.9,0.8-1.5c0-0.1,0-0.4,0-0.9c0-0.3,0.1-0.4,0.2-0.4
		c0.1,0,0.3,0.2,0.6,0.5c0.2,0.2,0.3,0.4,0.3,0.6c0.5-0.6,1-1.5,1.4-2.8C7.2,21.7,7,21.1,7,20.9c0-0.6,0.6-0.8,1.8-0.8
		c0.4-0.9,0.9-2.2,1.6-4c0.7-1.8,1.1-3,1.2-3.7c-0.1,0.2-0.8,0.5-2,0.9C8,13.8,7,14.2,6.5,14.4c-0.9,0.4-1.4,1-1.4,1.5
		c0,0.2,0.1,0.6,0.2,1c0,0.1,0,0.1,0,0.2c0,0.2-0.1,0.3-0.3,0.3c-0.2,0-0.3-0.1-0.4-0.2c-0.2-0.3-0.4-0.8-0.6-1.4
		c-0.2-0.7-0.3-1.2-0.3-1.5c0-0.6,1-1.2,2.8-1.6c1.2-0.3,2.4-0.5,3.6-0.8c0.8-0.2,1.4-0.6,1.7-1.1c0.2-0.3,0.3-0.4,0.4-0.4
		c0.1,0,0.4,0.1,0.7,0.4c0.1,0.1,0.2,0.3,0.2,0.5c0,0.4-0.4,1.8-1.2,3.9c-0.4,0.9-1.1,2.6-2,4.9c2.3,0.2,4.6,0.2,6.9,0.1
		c0.6-2,1.2-3.9,1.9-5.7c1.1-2.8,2.1-4.3,3-4.4C22.3,10.1,22.9,10.4,23.8,10.9z"/>
	<path class="st0" d="M35.6,19.2c0.3,0.1,0.4,0.3,0.4,0.4c0,0.2-0.2,0.4-0.5,0.4c-0.6,0.1-0.9,0.3-1.1,0.5c-0.1,0.1-0.2,0.6-0.4,1.5
		c-0.7,3.3-1.5,6.1-2.5,8.4c-0.3,0.7-0.7,1.1-1.2,1.1c-0.5,0-1.4-0.4-2.7-1.3c-0.1-0.1-0.2-0.2-0.2-0.3c0-0.2,0.1-0.3,0.4-0.3
		c0.1,0,0.2,0,0.5,0.1s0.4,0.1,0.6,0.1c0.4,0,0.8-0.3,1.2-0.8c0.9-1.3,1.8-3.8,2.8-7.4c-1,1.2-2.2,2.3-3.5,3.3c-1.7,1.3-3.1,2-4.2,2
		c-0.6,0-1.1-0.2-1.5-0.7c-0.7-0.4-1.1-0.8-1.4-1.1c-0.4-0.5-0.6-1-0.5-1.7c0.1-1.8,0.8-3.8,2.1-5.9c1.1-1.8,2.4-3.5,3.9-4.9
		c1.5-1.4,2.6-2.1,3.5-2.1c0.4,0,1.1,0.3,2,0.9c0.1-0.5,0.2-0.7,0.4-0.7c0.2,0,0.5,0.1,0.9,0.3c0.2,0.1,0.3,0.2,0.3,0.3
		c0.1,0.2,0,0.6-0.1,1.2c-0.1,1-0.4,1.9-0.7,2.9c-0.1,0.3-0.3,0.4-0.6,0.4c-0.2,0-0.5-0.1-0.9-0.2c-0.3-0.1-0.4-0.2-0.4-0.4
		c0-0.1,0.1-0.2,0.3-0.2c0,0,0.1,0,0.1,0c0.3-0.8,0.5-1.7,0.6-2.6c0-0.4-0.2-0.5-0.6-0.5c-0.4,0-0.9,0.1-1.5,0.4
		c-1.6,0.9-3.2,2.4-4.7,4.6s-2.5,4.2-2.7,6c-0.1,0.3-0.1,0.5-0.1,0.8c0,0.8,0.3,1.5,1,1.9c0.2,0.1,0.4,0.2,0.7,0.2
		c1,0,2.4-0.7,4.2-2.2c1.4-1.1,2.5-2.2,3.5-3.4c-1.7,0.1-2.7,0.2-2.9,0.2c-0.4,0-0.7-0.1-0.9-0.2c-0.1-0.1-0.3-0.4-0.4-0.8
		c-0.1-0.1-0.1-0.2-0.1-0.3c0-0.1,0-0.2,0.1-0.2c0,0,0.3,0.1,0.8,0.3c0.2,0.1,0.9,0.1,2,0c1-0.1,1.8-0.1,2.1-0.2
		c0.2-0.3,0.4-0.5,0.7-0.5C34.3,18.6,34.9,18.8,35.6,19.2z"/>
	<path class="st0" d="M56.9,29.2c-0.7,1.3-1.4,2-2,2c-0.4,0-0.8-0.2-1.3-0.6c-3.1-2.7-6.2-6.1-9.2-10.4c-0.3,1-0.8,2.4-1.5,4.2
		c-0.6,1.6-1.1,2.8-1.5,3.5c-0.2,0.4-0.4,0.6-0.6,0.6c-0.1,0-0.2-0.1-0.4-0.2c-0.6-0.4-0.8-0.8-0.8-1c0-0.2,0.1-0.4,0.2-0.6
		c0.2-0.5,0.5-1.2,0.7-2c0-0.2,0-0.4,0-0.6c0-0.1,0.1-0.2,0.2-0.3c0.1,0,0.4,0.2,0.7,0.8c0.6-1.4,1.4-3.2,2.2-5.4
		c-0.5-0.7-0.7-1.1-0.7-1.3c0-0.2,0.4-0.3,1.2-0.4c0.4-1,0.7-2.4,1.2-4c-1.4,0.5-2.4,1-3.1,1.3c-1,0.6-1.9,1.2-2.5,2
		c-0.3,0.3-0.4,0.7-0.4,1.1c0,0.3,0.2,1,0.5,1.9c0.1,0.3,0,0.4-0.2,0.4c-0.2,0-0.3-0.1-0.4-0.3c-0.5-0.7-0.9-1.5-1.2-2.2
		c-0.2-0.5-0.3-0.9-0.3-1c0-0.4,0.3-0.9,0.9-1.5c1.7-1.6,4-2.8,7-3.7c0-0.1,0.1-0.4,0.2-0.9c0.1-0.4,0.2-0.6,0.3-0.6
		c0.2,0,0.4,0.4,0.8,1c1.9-0.5,3.2-0.7,3.6-0.6c0.8,0.1,1.4,0.6,1.8,1.6c0.5,0.4,0.9,0.7,1,0.9c0.2,0.3,0.3,0.8,0.3,1.3
		c0,0.9-0.6,2.1-1.7,3.6c-1.2,1.5-2.2,2.2-3,2.2c-0.5,0-0.9-0.1-1.3-0.3c-0.3-0.2-0.6-0.4-0.9-0.6c-0.1-0.1-0.2-0.2-0.2-0.3
		c0-0.2,0.1-0.3,0.4-0.3c0.1,0,0.2,0,0.4,0.1c0.2,0.1,0.4,0.1,0.6,0.1c0.8,0,1.8-0.7,2.8-2c1-1.2,1.4-2.2,1.4-3c0-1-0.7-1.5-2-1.5
		c-1.1,0-2.4,0.3-3.7,0.8c-0.4,1.7-0.9,3.4-1.4,5c1.7,2.5,3.6,4.9,5.7,7.2c2.3,2.5,3.8,3.8,4.7,3.8c0.3,0,0.7-0.1,1.1-0.4
		c0.2-0.1,0.3-0.2,0.4-0.2c0.2,0,0.3,0.1,0.3,0.2C57.1,28.9,57,29.1,56.9,29.2z"/>
	<path class="st0" d="M70.6,13.4C70.3,16,69.4,18.9,68,22c-1.9,4.1-4,6.2-6.3,6.3c-0.4,0-0.9,0-1.3-0.1c-0.5-0.1-0.7-0.2-0.6-0.3
		c-1.4-0.3-2.3-0.7-2.9-1.2c-0.7-0.6-1.1-1.6-1-2.9c0.1-2.5,0.8-5.1,2.2-7.9c1.1-2.3,2.2-3.9,3.2-4.8c0.4-0.4,0.8-0.6,1.2-0.6
		s0.7,0.1,1.1,0.3c0.2,0.1,0.6,0.4,1.4,0.9c0.7-0.7,1.2-1.2,1.7-1.6c0.3-0.2,0.6-0.3,0.9-0.3c0.5,0,0.9,0.2,1.3,0.7
		c0.7,0,1.2,0.1,1.4,0.3c0.2,0.2,0.4,0.5,0.4,1C70.7,12.3,70.7,12.7,70.6,13.4z M68.9,12.3c0-0.6-0.1-1-0.4-1
		c-0.3,0-0.7,0.2-1.2,0.6c-1.2,0.8-2.7,2.1-4.4,3.7c-0.2,0.2-0.4,0.3-0.5,0.3c-0.1,0-0.2,0-0.2-0.2c0-0.1,0.1-0.3,0.2-0.5
		c0.7-1.2,1.5-2.1,2.3-3c-0.4-0.3-0.8-0.5-1.2-0.5c-0.2,0-0.4,0.1-0.6,0.2c-0.9,0.7-2,2.2-3.2,4.6c-1.4,2.8-2.1,5.2-2,7.3
		c0,0.9,0.2,1.5,0.5,1.9c0.3,0.4,0.7,0.7,1.4,1.1c0.5,0.3,1,0.4,1.5,0.3c1.7-0.2,3.4-2,5.1-5.3C67.7,18.7,68.7,15.5,68.9,12.3z"/>
	<path class="st0" d="M91.9,11.9C92,11.9,92,12,92,12c0,0.2-0.1,0.3-0.4,0.3c-0.1,0-0.2,0-0.3,0c-0.1,0-0.2,0-0.3,0
		c-0.4,0-0.8,0.4-1.2,1.1c-1.8,3.4-3,7.3-3.6,11.8c0.1-0.4,0.3-0.7,0.4-0.9c0.1-0.2,0.3-0.4,0.4-0.6c0.1-0.2,0.2-0.3,0.4-0.3
		c0.1,0,0.2,0.1,0.2,0.3c0,0.1,0,0.2-0.1,0.4c-0.6,1.2-0.9,2.4-1.1,3.6c-0.1,0.5-0.3,0.7-0.5,0.7c-0.3,0-0.7-0.2-1.3-0.7
		c-0.4-0.3-0.5-0.5-0.5-0.6c0,0,0-0.1,0.1-0.2s0.1-0.2,0.1-0.4c0.2-1.8,0.7-4.2,1.5-7c-1.8,3.4-3.6,6-5.2,7.8
		c-0.5,0.6-1,0.8-1.5,0.8c-0.6,0-1-0.3-1.4-0.8c-0.9-0.7-1.4-1.2-1.6-1.4c-0.3-0.4-0.5-1.1-0.5-2c0-0.2,0-0.4,0-0.6
		c0.1-1.3,0.4-2.9,1.1-5c0.6-2,1.4-3.9,2.2-5.5c-2.3,0.8-4,1.5-5,2.2c-0.5,0.3-0.7,0.7-0.7,1c0,0,0.1,0.4,0.4,1.4c0,0,0,0.1,0,0.1
		c0,0.2-0.1,0.2-0.2,0.2c-0.2,0-0.5-0.2-0.6-0.5c-0.7-1.2-1.1-2.1-1.1-2.6c0-0.7,0.5-1.2,1.4-1.5c1.7-0.4,3.7-1,6.2-1.8
		c0.4-0.6,0.8-1,1.1-1c0.4,0,0.9,0.3,1.6,1c0.1,0.1,0.2,0.2,0.2,0.3c0,0.2-0.4,0.4-1.2,0.5c-1,1.7-1.9,3.8-2.7,6.4
		c-0.7,2.3-1,4.2-1.1,5.6c0,0.7,0.1,1.3,0.5,1.8c0.3,0.4,0.7,0.6,1.1,0.6c0.4,0,0.8-0.2,1.2-0.6c1.5-1.8,2.9-3.8,4.3-6.2
		c1-1.7,2.2-4,3.7-7c0.3-0.7,0.7-1.4,1.1-2c0.2-0.3,0.4-0.4,0.7-0.4C90.2,10.6,90.9,11,91.9,11.9z"/>
	<path class="st0" d="M105.1,14.9c-0.2,0.9-0.8,2.1-1.7,3.5c-0.9,1.4-1.7,2.4-2.4,2.9c-0.5,0.3-1,0.5-1.4,0.5c-0.3,0-0.9-0.2-2-0.6
		c-0.2-0.1-0.3-0.2-0.3-0.3c0-0.2,0.2-0.3,0.7-0.3c0.8,0,1.4-0.2,1.8-0.5c0.8-0.6,1.6-1.5,2.3-2.5c0.9-1.4,1.5-2.7,1.7-4
		c0.1-0.7-0.1-1.2-0.7-1.3c-0.3-0.1-0.5-0.1-0.8,0c-1.3,0.1-2.6,0.4-3.8,0.9c-1.4,5.1-2.7,9.2-3.9,12.2c0.1,0,0.3-0.2,0.7-0.4
		c0.2-0.1,0.4-0.2,0.6-0.2c0.2,0,0.5,0.3,0.7,0.7c0.2,0.4,0.3,0.6,0.3,0.8c0,0.2-0.1,0.3-0.4,0.3c-0.2,0-0.6,0.1-1.1,0.4
		c-0.5,0.3-1,0.6-1.4,1c-0.2,0.2-0.4,0.3-0.6,0.3c-0.3,0-0.6-0.2-1-0.6C92.1,27.4,92,27.2,92,27c0-0.1,0.2-0.2,0.4-0.3
		C94.5,22,96,17.6,97,13.7c-3.2,1.4-4.8,2.8-4.8,4c0,0.2,0,0.4,0.1,0.5c0,0.1,0.1,0.3,0.2,0.6c0,0.1,0.1,0.2,0.1,0.2
		c0,0.2-0.1,0.4-0.3,0.4c-0.3,0-0.8-0.7-1.5-2.2c-0.1-0.2-0.2-0.4-0.2-0.6c0-0.5,0.3-1,0.9-1.6c0.4-0.4,1.2-0.9,2.4-1.6
		c1.3-0.7,2.4-1.3,3.4-1.7c0.1-0.4,0.2-0.8,0.2-1c0-0.3,0.1-0.5,0.3-0.5c0.2,0,0.6,0.3,1.2,0.9c1.4-0.4,2.3-0.6,2.8-0.6
		c0.9,0,1.6,0.5,2,1.5c0.5,0.4,0.8,0.7,1,0.9c0.2,0.3,0.3,0.6,0.3,0.9C105.3,14.1,105.2,14.5,105.1,14.9z"/>
	<path class="st0" d="M126.4,11.7c0,0.1,0,0.1,0,0.2c0,0.2-0.1,0.4-0.4,0.5c0,0-0.3,0.1-0.9,0.1c-1.3,0.2-2.9,0.4-4.8,0.5
		c-0.5,1.1-1.2,3.2-2.2,6.6c1.6-0.1,3.2-0.2,4.9-0.3c0.5,0,0.8,0.1,1,0.5c0,0.1,0.1,0.3,0.2,0.8c0,0.1,0,0.1,0,0.2
		c0,0.3-0.3,0.5-1,0.6c-0.5,0.1-0.8,0.1-0.9,0.1c-0.2,0-0.3-0.1-0.4-0.2c-0.1-0.2-0.3-0.3-0.7-0.3c-1.8,0-3.1,0-3.6,0.1
		c-0.3,0.8-0.8,2.9-1.6,6.3c-0.1,0.6-0.4,1-0.6,1c-0.2,0-0.5-0.1-1.1-0.3c-0.3-0.1-0.5-0.5-0.4-1.1c0.1-0.8,0.3-1.6,0.5-2.4
		c0.1-0.4,0.4-0.5,1-0.4c0.2-0.4,0.4-1.1,0.7-2.1c-0.4-0.9-0.5-1.4-0.5-1.4c0-0.1,0-0.1,0-0.2c0.1-0.3,0.5-0.5,1.3-0.7
		c0-0.1,0.7-2.4,2.1-6.6c-1.3,0.1-2.6,0.3-3.9,0.6c-1.4,0.3-2.4,0.7-2.9,1.1c-0.5,0.4-0.7,0.9-0.7,1.3c0,0.5,0.3,1.2,0.8,2.3
		c0.1,0.1,0.1,0.2,0.1,0.3c0,0.2-0.1,0.3-0.3,0.3c-0.1,0-0.3-0.1-0.4-0.2c-0.7-1-1.1-1.7-1.3-2.2c-0.1-0.4-0.2-0.9-0.3-1.6
		c-0.1-1,0.8-1.8,2.5-2.3c2.3-0.6,4.7-1.1,7.1-1.3c0.3-0.6,0.5-0.8,0.6-0.8c0.2,0,0.5,0.2,1,0.6c0.2,0,0.9-0.1,2.1-0.3
		c0.2,0,0.4-0.2,0.6-0.4c0.2-0.2,0.6-0.4,1.3-0.4c0.4,0,0.7,0.1,0.8,0.4C126.1,10.7,126.2,11.1,126.4,11.7z"/>
	<path class="st0" d="M128.1,19.3c-0.2,1.1-0.7,3-1.6,5.7c0.2-0.2,0.6-0.6,1-1.2c0.1-0.1,0.1-0.1,0.2-0.1c0.1,0,0.2,0.1,0.1,0.4
		c0,0.1-0.4,0.7-1.1,1.7c-0.5,0.8-0.9,1.5-1.1,2.2c-0.1,0.2-0.2,0.3-0.4,0.3s-0.5-0.1-0.8-0.3c-0.2-0.1-0.3-0.2-0.3-0.3
		c0-0.1,0-0.2,0.1-0.3c0.5-0.8,1-2.1,1.5-4c0.5-1.8,0.8-3.2,0.9-4.1c0-0.4,0-0.6-0.1-0.6c-0.1,0-0.2,0.1-0.4,0.3l-0.8,0.7
		c-0.3,0.3-0.4,0.3-0.4,0c0-0.1,0-0.2,0.1-0.3c0.4-0.6,0.8-1.1,1.3-1.6c0.1-0.1,0.3-0.2,0.4-0.2c0.1,0,0.3,0.1,0.6,0.3
		c0.4,0.1,0.6,0.2,0.6,0.2c0.2,0.1,0.3,0.3,0.3,0.7C128.1,18.9,128.1,19.1,128.1,19.3z M129.9,13.7c0.1,0.1,0.2,0.2,0.2,0.3
		c0,0.2-0.4,0.6-1.1,1.1c-0.5,0.3-0.9,0.4-1.4,0.4c-0.3-0.1-0.5-0.1-0.7-0.3c-0.1-0.1-0.1-0.1-0.1-0.2c0-0.1,0-0.1,0-0.1
		c0,0,0.1,0,0.2,0c0.8-0.7,1.3-1.2,1.5-1.5c0.2-0.2,0.3-0.3,0.4-0.3C129,13.2,129.4,13.4,129.9,13.7z"/>
	<path class="st0" d="M136.6,11.7c0.2,0.1,0.4,0.3,0.4,0.4c0,0.1-0.1,0.2-0.2,0.2c0,0-0.1,0-0.2,0c-0.1,0-0.1,0-0.2,0
		c-0.3,0-0.7,0.4-1.2,1.1c-0.4,0.6-1,2-1.7,4.1c-0.1,0.2-0.1,0.3-0.1,0.3c0,0.1,0.1,0.1,0.3,0.1c0.5,0,1.2,0,2-0.1
		c0.3,0,0.4,0.1,0.4,0.4c0,0.2-0.1,0.3-0.3,0.3c-0.2,0-1.1,0.1-2.8,0.2c-1,3-1.6,5.5-1.9,7.5c0,0.1,0,0.2,0,0.3
		c0,0.3,0.1,0.4,0.2,0.4c0.2,0,0.9-0.6,2.1-1.7c0.1-0.1,0.3-0.2,0.4-0.2c0.1,0,0.2,0,0.2,0.1c0,0.1,0,0.2-0.1,0.4
		c-0.7,0.9-1.4,1.7-2,2.3c-0.3,0.3-0.5,0.4-0.7,0.4s-0.5-0.1-0.9-0.4c-0.5-0.1-0.7-0.4-0.7-0.8c0-0.1,0-0.1,0-0.2
		c0.3-2.2,0.9-4.9,1.8-8.1c-0.4-0.1-0.9-0.1-1.2-0.2c-0.2,0-0.2-0.1-0.2-0.3c0-0.2,0.1-0.3,0.3-0.4s0.5-0.1,0.9-0.3
		c0.3-0.1,0.5-0.2,0.8-0.4c0.9-2.8,1.6-4.6,2.1-5.4c0.3-0.5,0.6-0.7,1-0.7C135.5,11.2,136,11.4,136.6,11.7z"/>
	<path class="st0" d="M145.2,23.4c-0.5,0.8-1.2,1.9-2,3.4c-0.2,0.4-0.3,0.8-0.4,1.1c-0.1,0.3-0.3,0.4-0.5,0.4
		c-0.2,0-0.4-0.1-0.7-0.2c-0.3-0.1-0.5-0.3-0.5-0.4c0-0.1,0.1-0.2,0.2-0.4c0.5-1.1,1-2.5,1.5-4.2c0.5-1.8,0.7-3.1,0.6-4
		c0-0.4-0.1-0.6-0.3-0.6c-0.1,0-0.3,0.1-0.5,0.3c-2.1,2.1-4,4.9-5.5,8.4c-0.2,0.4-0.4,0.6-0.7,0.6c-0.2,0-0.5-0.1-0.9-0.3
		c-0.2-0.1-0.3-0.1-0.3-0.2c0,0,0-0.2,0.1-0.4c0.5-1.1,1-2.4,1.5-4.1c0.5-1.8,0.8-3.2,0.9-4.2c0-0.3,0-0.5,0-0.5
		c0,0-0.1,0.1-0.4,0.3s-0.5,0.5-1,0.9c-0.1,0.1-0.2,0.1-0.3,0.1c-0.1,0-0.2,0-0.2-0.1c0-0.1,0-0.1,0.1-0.2c0.4-0.5,0.8-1,1.4-1.7
		c0.1-0.1,0.3-0.2,0.4-0.2c0.2,0,0.4,0.1,0.5,0.4c0.7,0.2,1,0.5,1,0.9c-0.1,0.9-0.6,2.6-1.4,5c0.6-1.1,1.4-2.3,2.5-3.7
		c1.1-1.4,1.9-2.1,2.4-2.4c0.3-0.1,0.4-0.2,0.6-0.2s0.3,0.1,0.5,0.3c0.7,0.2,1,0.7,1,1.2c0,0.6-0.1,1.5-0.4,2.9
		c-0.2,1.1-0.4,1.9-0.6,2.5c0.2-0.3,0.6-0.7,0.9-1.2c0.1-0.1,0.1-0.1,0.2-0.1c0.1,0,0.2,0.1,0.2,0.2
		C145.2,23.3,145.2,23.3,145.2,23.4z"/>
	<path class="st0" d="M153,24.3c-2.1,2.6-3.5,3.9-4.3,3.9c-0.4,0-0.9-0.3-1.5-0.8c-0.6-0.3-1-0.7-1-1.2c0-0.1,0-0.2,0-0.3
		c0.2-1.2,0.5-2.4,0.9-3.8c-0.3-0.2-0.5-0.3-0.5-0.5c0-0.1,0.1-0.2,0.3-0.2c0.1,0,0.3,0,0.4,0.1c0.8-1.7,1.4-2.9,2-3.6
		c0.4-0.5,0.7-0.7,1.1-0.7c0.1,0,0.5,0.1,1.1,0.4c0-0.3,0-0.4,0.2-0.4c0,0,0.2,0,0.6,0c0.4,0,0.5,0.1,0.5,0.2c0,0,0,0.1,0,0.2
		s0,0.2,0,0.3c0,0.3,0,0.7,0,1.1s0,0.7,0,0.9c0,1-0.3,1.8-0.9,2.2c-0.5,0.4-1.1,0.6-1.8,0.6c-0.3,0-0.9-0.1-1.7-0.3
		c-0.1,0.3-0.3,0.8-0.5,1.5c-0.2,1-0.3,1.8-0.3,2.6c0,0.4,0.1,0.7,0.4,0.7c0.1,0,0.2,0,0.4-0.1c1-0.3,2.3-1.4,4.1-3.2
		c0.1-0.1,0.2-0.2,0.3-0.2c0.2,0,0.2,0.1,0.2,0.2C153.2,24.1,153.1,24.2,153,24.3z M151.6,18.7c0-0.3-0.1-0.5-0.2-0.5
		c-0.1,0-0.2,0.1-0.4,0.2c-0.8,0.7-1.6,1.8-2.2,3.5c0.2,0,0.5,0.1,0.9,0.1c0.7,0,1.2-0.1,1.5-0.5c0.3-0.3,0.4-0.7,0.4-1.3
		C151.6,20.7,151.6,20.2,151.6,18.7z"/>
	<path class="st0" d="M158,25c0,1-0.5,1.7-1.7,2.1c-0.1,0.4-0.3,0.6-0.4,0.7c-0.2,0.2-0.5,0.3-0.9,0.4c-0.2,0-0.5,0-0.8,0
		c-0.5-0.1-1.1-0.2-1.8-0.3c-0.2,0-0.3-0.2-0.4-0.4c0-0.2,0.3-0.4,0.7-0.4c0.6,0,1.5-0.1,2.7-0.3c0.4-0.1,0.8-0.4,0.9-0.7
		c0.1-0.2,0.2-0.5,0.2-0.7c0-0.5-0.3-1.5-0.8-2.8c-0.5-1.3-0.8-2.2-0.7-2.6c0.1-1.1,1-1.8,2.9-2.2c0.2,0,0.3,0,0.3,0.2
		c0,0.1-0.1,0.2-0.2,0.2c-0.9,0.4-1.4,0.9-1.4,1.5c0,0.2,0,0.5,0.1,0.9c0.1,0.3,0.3,1.2,0.8,2.5C157.9,23.8,158,24.5,158,25z
		 M160.1,17.7c0,0.4-0.1,1-0.3,1.8c-0.1,0.3-0.2,0.5-0.3,0.6c0,0-0.2,0.1-0.4,0.2c-0.3,0.1-0.5,0.2-0.6,0.2c-0.1,0-0.2-0.1-0.2-0.3
		c0-0.1,0-0.2,0.1-0.4c0.2-0.8,0.3-1.4,0.2-1.7c0-0.3,0-0.5,0.3-0.6c0.4-0.2,0.7-0.3,0.8-0.3C159.9,17.2,160.1,17.4,160.1,17.7z"/>
	<path class="st0" d="M164.4,25c0,1-0.5,1.7-1.7,2.1c-0.1,0.4-0.3,0.6-0.4,0.7c-0.2,0.2-0.5,0.3-0.9,0.4c-0.2,0-0.5,0-0.8,0
		c-0.5-0.1-1.1-0.2-1.8-0.3c-0.2,0-0.3-0.2-0.4-0.4c0-0.2,0.3-0.4,0.7-0.4c0.6,0,1.5-0.1,2.7-0.3c0.4-0.1,0.8-0.4,0.9-0.7
		c0.1-0.2,0.2-0.5,0.2-0.7c0-0.5-0.3-1.5-0.8-2.8c-0.5-1.3-0.8-2.2-0.7-2.6c0.1-1.1,1-1.8,2.9-2.2c0.2,0,0.3,0,0.3,0.2
		c0,0.1-0.1,0.2-0.2,0.2c-0.9,0.4-1.4,0.9-1.4,1.5c0,0.2,0,0.5,0.1,0.9c0.1,0.3,0.3,1.2,0.8,2.5C164.2,23.8,164.4,24.5,164.4,25z
		 M166.4,17.7c0,0.4-0.1,1-0.3,1.8c-0.1,0.3-0.2,0.5-0.3,0.6c0,0-0.2,0.1-0.4,0.2c-0.3,0.1-0.5,0.2-0.6,0.2c-0.1,0-0.2-0.1-0.2-0.3
		c0-0.1,0-0.2,0.1-0.4c0.2-0.8,0.3-1.4,0.2-1.7c0-0.3,0-0.5,0.3-0.6c0.4-0.2,0.7-0.3,0.8-0.3C166.3,17.2,166.4,17.4,166.4,17.7z"/>
	<path class="st0" d="M183.5,24.1c0,1.5-0.8,2.8-2.3,3.7c-0.4,0.7-1,1-1.7,1c-1.3,0-2.7-0.6-4.2-1.7c-1.3-0.9-2.2-1.9-2.8-2.7
		c-0.5-0.8-0.7-1.3-0.7-1.5c0-0.3,0.2-0.6,0.6-0.9c0.4-0.3,0.6-0.5,0.8-0.5c0.2,0,0.3,0.1,0.3,0.4c0,0.1,0,0.2-0.1,0.4
		c0.4,1.2,1.4,2.4,2.8,3.4s2.8,1.6,3.9,1.6c1,0,1.6-0.7,1.6-2.1c0-0.8-0.6-2.3-1.8-4.7c-1.2-2.3-1.8-4-1.8-5c0-0.7,0.2-1.2,0.6-1.8
		c0.3-0.4,0.9-0.9,1.7-1.5c0.1-0.1,0.3-0.2,0.4-0.2c0.2,0,0.3,0.1,0.3,0.3c0,0.1-0.1,0.3-0.2,0.4c-0.7,0.6-1,1.4-1,2.3
		c0,1,0.6,2.6,1.8,4.9S183.5,23.5,183.5,24.1z M187.3,12.4c-0.3,1.2-0.8,2.2-1.3,3c-0.3,0.4-0.5,0.6-0.7,0.6c-0.2,0-0.6-0.2-1.2-0.5
		c-0.2-0.1-0.3-0.2-0.3-0.3c0-0.2,0.1-0.3,0.4-0.4c0.2-0.1,0.5-0.5,0.7-1.2c0.3-0.7,0.4-1.2,0.4-1.6c0-0.4-0.2-0.6-0.5-0.6
		c-0.1,0-0.2,0-0.4,0.1c-0.3,0.1-1,0.3-2.1,0.7c-0.1,0-0.2,0.1-0.3,0.1c-0.3,0-0.4-0.1-0.4-0.3c0-0.2,0.1-0.3,0.4-0.4
		c0.9-0.5,1.9-0.9,2.8-1.2c0.3-0.1,0.5-0.2,0.6-0.2c0.2,0,0.4,0.3,0.8,0.8c0.5,0.1,0.8,0.2,0.9,0.3c0.2,0.1,0.3,0.3,0.3,0.5
		C187.4,12,187.4,12.2,187.3,12.4z"/>
	<path class="st0" d="M192.8,11.7c0.2,0.1,0.4,0.3,0.4,0.4c0,0.1-0.1,0.2-0.2,0.2c0,0-0.1,0-0.2,0c-0.1,0-0.1,0-0.2,0
		c-0.3,0-0.7,0.4-1.2,1.1c-0.4,0.6-1,2-1.7,4.1c-0.1,0.2-0.1,0.3-0.1,0.3c0,0.1,0.1,0.1,0.3,0.1c0.5,0,1.2,0,2-0.1
		c0.3,0,0.4,0.1,0.4,0.4c0,0.2-0.1,0.3-0.3,0.3c-0.2,0-1.1,0.1-2.8,0.2c-1,3-1.6,5.5-1.9,7.5c0,0.1,0,0.2,0,0.3
		c0,0.3,0.1,0.4,0.2,0.4c0.2,0,0.9-0.6,2.1-1.7c0.1-0.1,0.3-0.2,0.4-0.2c0.1,0,0.2,0,0.2,0.1c0,0.1,0,0.2-0.1,0.4
		c-0.7,0.9-1.4,1.7-2,2.3c-0.3,0.3-0.5,0.4-0.7,0.4s-0.5-0.1-0.9-0.4c-0.5-0.1-0.7-0.4-0.7-0.8c0-0.1,0-0.1,0-0.2
		c0.3-2.2,0.9-4.9,1.8-8.1c-0.4-0.1-0.9-0.1-1.2-0.2c-0.2,0-0.2-0.1-0.2-0.3c0-0.2,0.1-0.3,0.3-0.4s0.5-0.1,0.9-0.3
		c0.3-0.1,0.5-0.2,0.8-0.4c0.9-2.8,1.6-4.6,2.1-5.4c0.3-0.5,0.6-0.7,1-0.7C191.7,11.2,192.2,11.4,192.8,11.7z"/>
	<path class="st0" d="M201.4,18.7c-1.1,2.1-2,4.5-2.5,7.4c0.2-0.4,0.5-0.9,0.9-1.6c0-0.1,0.1-0.2,0.2-0.2c0.1,0,0.2,0.1,0.2,0.2
		c0,0.1,0,0.1,0,0.2c-0.5,1.2-0.9,2.2-1.1,2.9c-0.1,0.4-0.2,0.6-0.4,0.6s-0.5-0.2-1-0.5c-0.3-0.2-0.4-0.5-0.3-1
		c0.4-1.8,0.8-3.4,1.3-4.8c-1.6,2.7-3,4.6-4.1,5.9c-0.2,0.3-0.5,0.4-0.8,0.4c-0.2,0-0.5-0.1-0.8-0.3c-0.6-0.1-0.9-0.4-0.9-0.9
		c0-0.1,0-0.2,0-0.3c0.2-2.4,0.7-4.4,1.3-6c-0.1,0.1-0.4,0.3-0.6,0.6c-0.1,0.1-0.2,0.1-0.3,0.1c-0.1-0.1-0.1-0.1,0-0.3
		c0.5-0.7,0.7-1.1,0.8-1.3c0.3-0.7,0.5-1.2,0.8-1.5c0.2-0.2,0.3-0.3,0.5-0.3c0.2,0,0.6,0.1,1,0.4c0.1,0.1,0.2,0.2,0.2,0.2l-0.3,0.4
		c-0.4,0.6-0.9,1.8-1.3,3.4c-0.5,1.8-0.8,3.2-0.8,4.3c0,0.4,0.1,0.5,0.2,0.5c0.1,0,0.4-0.2,0.7-0.5c0.7-0.7,1.6-2,2.8-3.9
		c1.1-1.7,1.8-2.8,2-3.3c0.4-0.9,0.7-1.4,0.9-1.5c0.2-0.1,0.3-0.2,0.4-0.2s0.3,0.1,0.7,0.3s0.5,0.3,0.5,0.4c0,0,0,0.1-0.1,0.1
		S201.4,18.7,201.4,18.7z"/>
	<path class="st0" d="M217.7,8.2c0.1,0.1,0.2,0.2,0.2,0.3c0,0.2-0.1,0.2-0.3,0.2c-0.1,0-0.2,0-0.2-0.1c-0.4-0.2-0.7-0.3-0.9-0.3
		c-0.5,0-1.1,0.5-1.7,1.5c-2.3,3.8-4,8.9-5.1,15.2c0.2-0.2,0.5-0.5,0.9-1c0.2-0.3,0.4-0.4,0.5-0.4c0.2,0,0.2,0.1,0.1,0.4
		c-0.8,1.1-1.3,2.3-1.6,3.6c-0.1,0.3-0.2,0.5-0.4,0.5c-0.1,0-0.2,0-0.3-0.1c-0.4-0.3-0.7-0.5-0.7-0.5c-0.2-0.2-0.3-0.4-0.3-0.6
		c0-0.1,0-0.3,0.1-0.5c0.4-2,0.7-3.4,0.9-4.4c-0.8,1.2-1.8,2.4-2.8,3.6c-1,1.2-1.8,1.9-2.3,2.3c-0.4,0.2-0.6,0.4-0.8,0.4
		c-0.2,0-0.4-0.1-0.7-0.4c-0.5-0.3-0.8-0.7-0.8-1.2c0-0.1,0-0.2,0-0.3c0.2-1.3,0.7-2.7,1.7-4.4c1-1.7,2-3.1,3.3-4.2
		c0.4-0.4,0.8-0.6,1.1-0.5c0.3,0,0.9,0.4,1.8,1.2c0.1,0.1,0.1,0.1,0.1,0.2c0,0.1-0.1,0.2-0.3,0.2c-0.1,0-0.1,0-0.2,0
		c-0.6-0.3-1.1-0.2-1.4,0c-0.8,0.6-1.7,1.6-2.6,3.1c-1.1,1.7-1.8,3.2-2,4.6c0,0.3,0,0.5,0.3,0.5c0.3,0,0.6-0.2,1-0.6
		c0.9-0.9,2-2.1,3-3.5c1.1-1.4,1.8-2.5,2.1-3.3c0.2-0.4,0.3-0.8,0.4-1.2c0.9-3.1,1.9-5.8,2.9-8c0.8-1.7,1.6-2.9,2.2-3.5
		c0.2-0.2,0.5-0.3,0.7-0.3c0.2,0,0.5,0.1,0.9,0.4C216.9,7.5,217.3,7.9,217.7,8.2z"/>
	<path class="st0" d="M216.1,19.3c-0.2,1.1-0.7,3-1.6,5.7c0.2-0.2,0.6-0.6,1-1.2c0.1-0.1,0.1-0.1,0.2-0.1c0.1,0,0.2,0.1,0.1,0.4
		c0,0.1-0.4,0.7-1.1,1.7c-0.5,0.8-0.9,1.5-1.1,2.2c-0.1,0.2-0.2,0.3-0.4,0.3s-0.5-0.1-0.8-0.3c-0.2-0.1-0.3-0.2-0.3-0.3
		c0-0.1,0-0.2,0.1-0.3c0.5-0.8,1-2.1,1.5-4c0.5-1.8,0.8-3.2,0.9-4.1c0-0.4,0-0.6-0.1-0.6c-0.1,0-0.2,0.1-0.4,0.3l-0.8,0.7
		c-0.3,0.3-0.4,0.3-0.4,0c0-0.1,0-0.2,0.1-0.3c0.4-0.6,0.8-1.1,1.3-1.6c0.1-0.1,0.3-0.2,0.4-0.2c0.1,0,0.3,0.1,0.6,0.3
		c0.4,0.1,0.6,0.2,0.6,0.2c0.2,0.1,0.3,0.3,0.3,0.7C216.1,18.9,216.1,19.1,216.1,19.3z M217.9,13.7c0.1,0.1,0.2,0.2,0.2,0.3
		c0,0.2-0.4,0.6-1.1,1.1c-0.5,0.3-0.9,0.4-1.4,0.4c-0.3-0.1-0.5-0.1-0.7-0.3c-0.1-0.1-0.1-0.1-0.1-0.2c0-0.1,0-0.1,0-0.1
		c0,0,0.1,0,0.2,0c0.8-0.7,1.3-1.2,1.5-1.5c0.2-0.2,0.3-0.3,0.4-0.3C217,13.2,217.4,13.4,217.9,13.7z"/>
	<path class="st0" d="M225.6,19.9c0,0.8-0.2,1.8-0.5,3c-0.5,2-1.3,3.5-2.3,4.6c-0.5,0.6-1.1,0.9-1.8,0.9c-0.3,0-0.6-0.1-1-0.2
		c-0.8-0.1-1.4-0.3-1.9-0.7c-0.5-0.5-0.8-1.1-0.8-1.9c0-0.9,0.3-2.1,0.9-3.8c0.6-1.8,1.3-3,2-3.8c0.3-0.4,0.6-0.6,0.8-0.6
		c0.3,0,0.8,0.3,1.4,0.9c0.2-0.1,0.5-0.2,1.1-0.5c0.3-0.1,0.5-0.1,0.6-0.1c0.3,0,0.7,0.3,1.1,0.9C225.5,19,225.6,19.4,225.6,19.9z
		 M224.1,20.2c0.1-0.6,0.1-0.9,0.1-1.1c0-0.4-0.1-0.5-0.3-0.5c-0.1,0-0.2,0-0.3,0.1l-2,0.8c-0.2,0.1-0.4,0.1-0.4,0.1
		c-0.1,0-0.1-0.1-0.2-0.2c-0.5,0.6-0.9,1.5-1.4,2.6c-0.3,0.9-0.6,1.7-0.7,2.4c-0.1,0.5-0.1,0.9-0.1,1.3c0,1.3,0.4,1.9,1.2,1.9
		c0.3,0,0.7-0.1,1-0.4c0.7-0.5,1.4-1.4,2-2.9C223.6,22.9,224,21.6,224.1,20.2z"/>
</g>
</svg>
